<svg width="595" height="595" viewBox="0 0 595 595" fill="none" xmlns="http://www.w3.org/2000/svg">
<path d="M173.541 247.917C173.541 234.225 184.641 223.125 198.333 223.125C212.025 223.125 223.125 234.225 223.125 247.917C223.125 267.642 230.961 286.56 244.909 300.508C258.857 314.456 277.775 322.292 297.5 322.292C317.226 322.292 336.143 314.455 350.091 300.508C364.039 286.56 371.875 267.642 371.875 247.917C371.875 234.225 382.974 223.125 396.666 223.125C410.358 223.125 421.458 234.225 421.458 247.917C421.458 280.792 408.398 312.321 385.152 335.568C361.905 358.815 330.376 371.875 297.5 371.875C264.625 371.875 233.095 358.815 209.848 335.568C186.602 312.321 173.541 280.792 173.541 247.917Z" fill="white"/>
<path d="M518.072 124.802C531.764 124.802 542.864 135.902 542.864 149.594C542.864 163.286 531.764 174.386 518.072 174.386H76.9292C63.2371 174.386 52.1372 163.286 52.1372 149.594C52.1372 135.902 63.2371 124.802 76.9292 124.802H518.072Z" fill="white"/>
<path d="M495.833 165.286C495.833 159.922 494.093 154.703 490.875 150.411L490.874 150.41L441.291 84.2904V84.2894C438.982 81.2113 435.988 78.7134 432.546 76.9925C429.103 75.2713 425.307 74.3753 421.458 74.3753H173.542C169.693 74.3753 165.897 75.2713 162.454 76.9925C159.012 78.7135 156.017 81.2111 153.708 84.2894L153.709 84.2904L104.126 150.41L104.125 150.411C100.907 154.703 99.167 159.922 99.167 165.286V495.833C99.167 502.408 101.778 508.714 106.428 513.364C111.077 518.013 117.383 520.625 123.958 520.625H471.042C477.617 520.625 483.923 518.013 488.572 513.364C493.222 508.714 495.833 502.408 495.833 495.833V165.286ZM545.417 495.833C545.417 515.559 537.581 534.476 523.633 548.424C509.685 562.372 490.767 570.208 471.042 570.208H123.958C104.233 570.208 85.3151 562.372 71.3672 548.424C57.4193 534.476 49.583 515.559 49.583 495.833V165.286C49.583 149.194 54.8027 133.535 64.458 120.661L114.041 54.5433L114.042 54.5413C120.97 45.3044 129.953 37.8075 140.28 32.6439C150.608 27.4802 161.996 24.7913 173.542 24.7913H421.458C433.004 24.7913 444.392 27.4802 454.72 32.6439C465.047 37.8075 474.03 45.3044 480.958 54.5413L480.959 54.5433L530.542 120.661L530.991 121.267C540.359 134.025 545.417 149.446 545.417 165.286V495.833Z" fill="white"/>
</svg>
